HIERARCHY
ROOT hip
{
	OFFSET 0.000000 0.000000 0.000000
	CHANNELS 6 Xposition Yposition Zposition Xrotation Zrotation Yrotation 
	JOINT abdomen
	{
		OFFSET 0.000000 3.422050 0.000000
		CHANNELS 3 Xrotation Zrotation Yrotation 
		JOINT chest
		{
			OFFSET 0.000000 8.486693 -0.684411
			CHANNELS 3 Xrotation Zrotation Yrotation 
			JOINT neck
			{
				OFFSET 0.000000 10.266162 -0.273764
				CHANNELS 3 Xrotation Zrotation Yrotation 
				JOINT head
				{
					OFFSET 0.000000 3.148285 0.000000
					CHANNELS 3 Xrotation Zrotation Yrotation 
					End Site
					{
						OFFSET 0.000000 3.148289 0.000000
					}
				}
			}
			JOINT lCollar
			{
				OFFSET 3.422053 6.707223 -0.821293
				CHANNELS 3 Yrotation Zrotation Xrotation 
				JOINT lShldr
				{
					OFFSET 3.285171 0.000000 0.000000
					CHANNELS 3 Zrotation Yrotation Xrotation 
					JOINT lForeArm
					{
						OFFSET 10.129278 0.000000 0.000000
						CHANNELS 3 Yrotation Zrotation Xrotation 
						JOINT lHand
						{
							OFFSET 8.486692 0.000000 0.000000
							CHANNELS 3 Zrotation Yrotation Xrotation 
							End Site
							{
								OFFSET 4.106464 0.000000 0.000000
							}
						}
					}
				}
			}
			JOINT rCollar
			{
				OFFSET -3.558935 6.707223 -0.821293
				CHANNELS 3 Yrotation Zrotation Xrotation 
				JOINT rShldr
				{
					OFFSET -3.148289 0.000000 0.000000
					CHANNELS 3 Zrotation Yrotation Xrotation 
					JOINT rForeArm
					{
						OFFSET -10.266159 0.000000 0.000000
						CHANNELS 3 Yrotation Zrotation Xrotation 
						JOINT rHand
						{
							OFFSET -8.349810 0.000000 0.000000
							CHANNELS 3 Zrotation Yrotation Xrotation 
							End Site
							{
								OFFSET -4.106464 0.000000 0.000000
							}
						}
					}
				}
			}
		}
	}
	JOINT lThigh
	{
		OFFSET 5.338403 -1.642589 1.368821
		CHANNELS 3 Xrotation Zrotation Yrotation 
		JOINT lShin
		{
			OFFSET -2.053232 -20.121670 0.000000
			CHANNELS 3 Xrotation Zrotation Yrotation 
			JOINT lFoot
			{
				OFFSET 0.000000 -19.300380 -1.231939
				CHANNELS 3 Xrotation Yrotation Zrotation 
				End Site
				{
					OFFSET 0.000000 -2.463878 4.653993
				}
			}
		}
	}
	JOINT rThigh
	{
		OFFSET -5.338403 -1.642589 1.368821
		CHANNELS 3 Xrotation Zrotation Yrotation 
		JOINT rShin
		{
			OFFSET 2.053232 -20.121670 0.000000
			CHANNELS 3 Xrotation Zrotation Yrotation 
			JOINT rFoot
			{
				OFFSET 0.000000 -19.300380 -1.231939
				CHANNELS 3 Xrotation Yrotation Zrotation 
				End Site
				{
					OFFSET 0.000000 -2.463878 4.653993
				}
			}
		}
	}
}
MOTION
Frames: 19
Frame Time: 0.033264
19.995884 20.420734 12.708813 128.994614 0.003765 -179.992111 -9.353822 0.000000 0.000000 -0.589896 -0.812055 0.760819 15.993459 0.000000 0.000000 21.917877 0.000000 0.000000 17.991001 6.306259 -0.522359 7.802129 14.352391 61.042023 -45.355446 -27.162807 51.007492 0.347654 8.281286 -1.470300 -18.009243 -6.326934 -0.526662 -7.955146 -16.952494 61.240093 45.353050 27.133331 51.016972 -0.361835 -8.274455 -1.469286 47.613064 39.299397 58.069260 57.175457 44.317352 -15.792047 12.862911 -23.421572 -16.573242 48.111416 -40.160137 -59.789898 56.423790 -44.276096 16.319736 13.570788 24.464125 14.765049 
19.995884 20.420734 12.708813 128.994614 0.003765 -179.992111 -9.603927 0.000000 0.000000 -0.189266 -0.812061 0.760849 15.993459 0.000000 0.000000 21.341042 0.000000 0.000000 17.991001 6.306259 -0.522359 7.801397 14.339340 61.041039 -45.355446 -27.162807 51.007492 0.347654 8.281286 -1.470300 -18.009243 -6.326934 -0.526662 -7.955146 -16.952494 61.240093 45.353050 27.133331 51.016972 -0.361835 -8.274455 -1.469286 47.557083 39.127541 57.761353 57.175457 44.317352 -15.792047 12.801626 -23.202154 -16.843311 48.023636 -39.917988 -59.374111 56.423790 -44.276096 16.319736 13.480543 24.162844 15.149420 
19.995884 20.420734 12.708813 128.994614 0.003765 -179.992111 -9.854029 0.000000 0.000000 0.211344 -0.812068 0.760880 15.993459 0.000000 0.000000 20.764257 0.000000 0.000000 17.991001 6.306259 -0.522359 7.800663 14.326291 61.040051 -45.355446 -27.162807 51.007492 0.347654 8.281286 -1.470300 -18.009243 -6.326934 -0.526662 -7.955146 -16.952494 61.240093 45.353050 27.133331 51.016972 -0.361835 -8.274454 -1.469285 47.502422 38.955460 57.454403 57.175457 44.317352 -15.792047 12.741571 -22.982483 -17.112671 47.938450 -39.675373 -58.960304 56.423790 -44.276096 16.319736 13.392727 23.861034 15.532344 
19.995884 20.420734 12.708813 128.994614 0.003765 -179.992111 -10.104120 0.000000 0.000000 0.611926 -0.812074 0.760910 15.993459 0.000000 0.000000 20.187569 0.000000 0.000000 17.991001 6.306259 -0.522359 7.799928 14.313239 61.039059 -45.355446 -27.162807 51.007492 0.347654 8.281286 -1.470300 -18.009243 -6.326934 -0.526662 -7.955146 -16.952494 61.240093 45.353050 27.133331 51.016972 -0.361835 -8.274456 -1.469286 47.449066 38.783146 57.148411 57.175457 44.317352 -15.792047 12.682737 -22.762568 -17.381336 47.855831 -39.432301 -58.548424 56.423790 -44.276096 16.319736 13.307318 23.558720 15.913837 
19.995884 20.420734 12.708813 128.994614 0.003765 -179.992111 -10.354205 0.000000 0.000000 1.012468 -0.812081 0.760940 15.993459 0.000000 0.000000 19.610992 0.000000 0.000000 17.991001 6.306259 -0.522359 7.799197 14.300191 61.038074 -45.355446 -27.162807 51.007492 0.347654 8.281286 -1.470300 -18.009243 -6.326934 -0.526662 -7.955146 -16.952494 61.240093 45.353050 27.133331 51.016972 -0.361835 -8.274455 -1.469286 47.397045 38.610653 56.843414 57.175457 44.317352 -15.792047 12.625120 -22.542414 -17.649307 47.775776 -39.188824 -58.138489 56.423790 -44.276096 16.319736 13.224317 23.255943 16.293921 
19.995884 20.420734 12.708813 128.994614 0.003765 -179.992111 -10.604275 0.000000 0.000000 1.412960 -0.812087 0.760970 15.993459 0.000000 0.000000 19.034563 0.000000 0.000000 17.991001 6.306259 -0.522359 7.798463 14.287142 61.037086 -45.355446 -27.162807 51.007492 0.347654 8.281286 -1.470300 -18.009243 -6.326934 -0.526662 -7.955147 -16.952494 61.240097 45.353050 27.133331 51.016972 -0.361835 -8.274455 -1.469286 47.346302 38.437935 56.539341 57.175457 44.317352 -15.792047 12.568710 -22.322033 -17.916588 47.698246 -38.944935 -57.730453 56.423790 -44.276096 16.319736 13.143694 22.952715 16.672606 
19.995884 20.420734 12.708813 128.994614 0.003765 -179.992111 -10.854331 0.000000 0.000000 1.813395 -0.812095 0.760999 15.993459 0.000000 0.000000 18.458305 0.000000 0.000000 17.991001 6.306259 -0.522359 7.797730 14.274090 61.036095 -45.355446 -27.162807 51.007492 0.347654 8.281286 -1.470300 -18.009243 -6.326934 -0.526662 -7.955146 -16.952494 61.240086 45.353050 27.133331 51.016972 -0.361835 -8.274455 -1.469286 47.296871 38.265045 56.236237 57.175457 44.317352 -15.792047 12.513505 -22.101435 -18.183189 47.623226 -38.700672 -57.324318 56.423790 -44.276096 16.319736 13.065440 22.649065 17.049913 
19.995884 20.420734 12.708813 128.994614 0.003765 -179.992111 -11.104370 0.000000 0.000000 2.213761 -0.812102 0.761030 15.993459 0.000000 0.000000 17.882257 0.000000 0.000000 17.991001 6.306259 -0.522359 7.796999 14.261042 61.035110 -45.355446 -27.162807 51.007492 0.347654 8.281286 -1.470300 -18.009243 -6.326934 -0.526662 -7.955146 -16.952494 61.240093 45.353050 27.133331 51.016972 -0.361835 -8.274454 -1.469285 47.248711 38.091957 55.934063 57.175457 44.317352 -15.792047 12.459498 -21.880634 -18.449120 47.550674 -38.456051 -56.920044 56.423790 -44.276096 16.319736 12.989536 22.345013 17.425850 
19.995884 20.420734 12.708813 128.994614 0.003765 -179.992111 -11.354394 0.000000 0.000000 2.614049 -0.812109 0.761059 15.993459 0.000000 0.000000 17.306438 0.000000 0.000000 17.991001 6.306259 -0.522359 7.796268 14.247991 61.034126 -45.355446 -27.162807 51.007492 0.347654 8.281286 -1.470300 -18.009241 -6.326934 -0.526662 -7.955146 -16.952494 61.240093 45.353050 27.133331 51.016972 -0.361835 -8.274456 -1.469286 47.201847 37.918705 55.632839 57.175449 44.317352 -15.792047 12.406684 -21.659620 -18.714373 47.480587 -38.211086 -56.517624 56.423790 -44.276096 16.319736 12.915972 22.040590 17.800444 
19.995884 20.420734 12.708813 128.994614 0.003765 -179.992111 -11.604393 0.000000 0.000000 3.014248 -0.812117 0.761089 15.993459 0.000000 0.000000 16.730885 0.000000 0.000000 17.991001 6.306259 -0.522359 7.795537 14.234942 61.033150 -45.355446 -27.162807 51.007492 0.347654 8.281286 -1.470300 -18.009243 -6.326934 -0.526662 -7.955146 -16.952494 61.240093 45.353050 27.133331 51.016972 -0.361835 -8.274455 -1.469286 47.156239 37.745281 55.332535 57.175449 44.317352 -15.792047 12.355061 -21.438427 -18.978966 47.412952 -37.965820 -56.117050 56.423790 -44.276096 16.319736 12.844729 21.735825 18.173706 
19.995884 20.420734 12.708813 128.994614 0.003765 -179.992111 -11.854370 0.000000 0.000000 3.414350 -0.812125 0.761119 15.993459 0.000000 0.000000 16.155619 0.000000 0.000000 17.991001 6.306259 -0.522359 7.794804 14.221889 61.032154 -45.355446 -27.162807 51.007492 0.347654 8.281286 -1.470300 -18.009243 -6.326934 -0.526662 -7.955147 -16.952494 61.240097 45.353050 27.133331 51.016972 -0.361835 -8.274455 -1.469286 47.111908 37.571709 55.033173 57.175449 44.317352 -15.792047 12.304618 -21.217049 -19.242905 47.347710 -37.720253 -55.718273 56.423790 -44.276096 16.319736 12.775797 21.430742 18.545660 
19.995884 20.420734 12.708813 128.994614 0.003765 -179.992111 -12.104320 0.000000 0.000000 3.814345 -0.812133 0.761148 15.993459 0.000000 0.000000 15.580674 0.000000 0.000000 17.991001 6.306259 -0.522359 7.794073 14.208843 61.031170 -45.355446 -27.162807 51.007492 0.347654 8.281286 -1.470300 -18.009245 -6.326934 -0.526662 -7.955146 -16.952494 61.240086 45.353050 27.133331 51.016972 -0.361835 -8.274455 -1.469286 47.068810 37.397976 54.734703 57.175449 44.317352 -15.792047 12.255351 -20.995495 -19.506189 47.284863 -37.474415 -55.321297 56.423790 -44.276096 16.319736 12.709150 21.125351 18.916304 
19.995884 20.420734 12.708813 128.994614 0.003765 -179.992111 -12.354241 0.000000 0.000000 4.214222 -0.812142 0.761178 15.993459 0.000000 0.000000 15.006083 0.000000 0.000000 17.991001 6.306259 -0.522359 7.793342 14.195790 61.030174 -45.355446 -27.162807 51.007492 0.347654 8.281286 -1.470300 -18.009243 -6.326934 -0.526662 -7.955146 -16.952494 61.240093 45.353050 27.133331 51.016972 -0.361835 -8.274454 -1.469285 47.026955 37.224098 54.437145 57.175449 44.317352 -15.792047 12.207259 -20.773785 -19.768829 47.224396 -37.228333 -54.926109 56.423790 -44.276096 16.319736 12.644785 20.819693 19.285666 
19.995884 20.420734 12.708813 128.994614 0.003765 -179.992111 -12.604131 0.000000 0.000000 4.613973 -0.812150 0.761207 15.993459 0.000000 0.000000 14.431860 0.000000 0.000000 17.991001 6.306259 -0.522359 7.792613 14.182743 61.029202 -45.355446 -27.162807 51.007492 0.347654 8.281286 -1.470300 -18.009243 -6.326934 -0.526662 -7.955146 -16.952494 61.240093 45.353050 27.133331 51.016972 -0.361835 -8.274455 -1.469286 46.986343 37.050098 54.140495 57.175449 44.317352 -15.792047 12.160332 -20.551914 -20.030828 47.166271 -36.982014 -54.532677 56.423790 -44.276096 16.319736 12.582675 20.513783 19.653763 
19.995884 20.420734 12.708813 128.994614 0.003765 -179.992111 -12.853989 0.000000 0.000000 5.013587 -0.812159 0.761237 15.993459 0.000000 0.000000 13.858047 0.000000 0.000000 17.991001 6.306259 -0.522359 7.791882 14.169692 61.028214 -45.355446 -27.162807 51.007492 0.347654 8.281286 -1.470300 -18.009243 -6.326934 -0.526662 -7.955146 -16.952494 61.240093 45.353050 27.133331 51.016972 -0.361835 -8.274455 -1.469286 46.946968 36.875969 53.844757 57.175449 44.317352 -15.792047 12.114565 -20.329897 -20.292191 47.110462 -36.735485 -54.140972 56.423790 -44.276096 16.319736 12.522813 20.207647 20.020603 
19.995884 20.420734 12.708813 128.994614 0.003765 -179.992111 -13.103807 0.000000 0.000000 5.413054 -0.812168 0.761266 15.993459 0.000000 0.000000 13.284665 0.000000 0.000000 17.991001 6.306259 -0.522359 7.791152 14.156643 61.027229 -45.355446 -27.162807 51.007492 0.347654 8.281286 -1.470300 -18.009243 -6.326934 -0.526662 -7.955147 -16.952494 61.240097 45.353050 27.133333 51.016979 -0.361835 -8.274455 -1.469286 46.908802 36.701710 53.549896 57.175465 44.317352 -15.792045 12.069957 -20.107752 -20.552931 47.056938 -36.488754 -53.750977 56.423790 -44.276096 16.319736 12.465182 19.901316 20.386208 
19.995884 20.420734 12.708813 128.994614 0.003765 -179.992111 -13.353594 0.000000 0.000000 5.812367 -0.812177 0.761295 15.993459 0.000000 0.000000 12.711747 0.000000 0.000000 17.991001 6.306259 -0.522359 7.790421 14.143593 61.026245 -45.355446 -27.162807 51.007492 0.347654 8.281286 -1.470300 -18.009243 -6.326934 -0.526662 -7.955146 -16.952494 61.240086 45.353050 27.133331 51.016972 -0.361835 -8.274455 -1.469286 46.871857 36.527359 53.255932 57.175465 44.317352 -15.792045 12.026496 -19.885473 -20.813044 47.005695 -36.241856 -53.362690 56.423790 -44.276096 16.319736 12.409768 19.594807 20.750599 
19.995884 20.420734 12.708813 128.994614 0.003765 -179.992111 -13.603336 0.000000 0.000000 6.211514 -0.812186 0.761325 15.993459 0.000000 0.000000 12.139319 0.000000 0.000000 17.991001 6.306259 -0.522359 7.789694 14.130545 61.025261 -45.355446 -27.162807 51.007492 0.347654 8.281286 -1.470300 -18.009243 -6.326934 -0.526662 -7.955146 -16.952494 61.240093 45.353050 27.133329 51.016968 -0.361835 -8.274455 -1.469286 46.836098 36.352894 52.962826 57.175465 44.317352 -15.792045 11.984178 -19.663074 -21.072538 46.956730 -35.994820 -52.976116 56.423790 -44.276096 16.319736 12.356555 19.288147 21.113773 
19.995884 20.420734 12.708813 128.994614 0.003765 -179.992111 -13.853036 0.000000 0.000000 6.610486 -0.812196 0.761354 15.993459 0.000000 0.000000 11.567407 0.000000 0.000000 17.991001 6.306259 -0.522359 7.788966 14.117496 61.024284 -45.355446 -27.162807 51.007492 0.347654 8.281286 -1.470300 -18.009243 -6.326934 -0.526662 -7.955146 -16.952494 61.240093 45.353050 27.133331 51.016972 -0.361835 -8.274455 -1.469286 46.801559 36.178341 52.670624 57.175465 44.317352 -15.792045 11.943003 -19.440567 -21.331425 46.909981 -35.747650 -52.591187 56.423790 -44.276096 16.319736 12.305521 18.981352 21.475756 
